******************      Log   20250110       ******************
10/01/2025 18:00:56 ==>  La descarga es para el metodo mayor a 60 días
10/01/2025 18:00:56 ==>  Se inicia proceso de descarga 2024-11-04 05:00:00 - 2024-11-05 05:00:00
10/01/2025 18:00:57 ==>  Las conversaciones a evaluar son del rango:
10/01/2025 18:00:58 ==>  Se extraera un total de: 1 conversaciones
10/01/2025 18:00:58 ==>  Item: 1 - Conversacion: a23bbad7-753f-4842-bdbd-24ed691f3847
10/01/2025 18:00:58 ==>  Se extrae la información de las grabaciones de la conversación: a23bbad7-753f-4842-bdbd-24ed691f3847 y de la grabacion: a6f54cf9-ebdd-4163-b345-a5df4d9205db - con una duracion de 52
10/01/2025 18:00:59 ==>  Nombre del audio=>04-11-2024_a6f54cf9-ebdd-4163-b345-a5df4d9205db_NNN_991300820
10/01/2025 18:00:59 ==>  Descarga de audio: C:\Users\Administrator\Documents\directory-glacier-deep-archive/KPCx1/RS/KONECTA_SOAT_RIMAC_TELEMARKETING-Semana-1-noviembre/04-11-2024_a6f54cf9-ebdd-4163-b345-a5df4d9205db_NNN_991300820.MP3|https://api-downloads.mypurecloud.com/MediaCache/a23bbad7-753f-4842-bdbd-24ed691f3847/a6f54cf9-ebdd-4163-b345-a5df4d9205db/isDownloading%3Atrue_format%3AMP3_variableWidth%3Atrue_color%3A2719929_version%3Av2_expandAttachments%3Atrue/AUDIO_SGAXDAMBQOMWTSMRSGMZTOMRQGM3DQNJUG43TMLRQGAYHG%3D%3D%3D.MP3?response-content-disposition=attachment%3Bfilename%3D%22a23bbad7-753f-4842-bdbd-24ed691f3847_a6f54cf9-ebdd-4163-b345-a5.MP3%22&Expires=1736553659&Signature=x9Rz3GGfrvOS~0riKaxG7BN-oyGSMlFRV9An41jx0dH42sjxZA8HTaUgMv3qykwPjsdZDq5fCdnMDAym34BRkqIqJ2w9D8-jYSRaspCrFIco1vGx1AW3Pj8TrlFa0B2Ro7cXPzihbFHrREywAKN0C6zGHuE9yXm0OhfSnlx-SN4d0tkr0gypCrLBR~eqEG-Gub9q8HcTdzrxfSWZ~aiv8WIz52eUcMkaMELWyUBtudlKNkooP6pS8XG1XvSIwMrNP63spOSUl0eIssbm9uSXkEdm3cvmVj~dtnBGk0qqCDrgIgsTKInF81J-CIkbMhsP5YfXvPmxTV5w52Dmm9tGsw__&Key-Pair-Id=K1TG4XUGWROLC3
10/01/2025 18:00:59 ==>  Archivo descargado exitosamente: C:\Users\Administrator\Documents\directory-glacier-deep-archive/KPCx1/RS/KONECTA_SOAT_RIMAC_TELEMARKETING-Semana-1-noviembre/04-11-2024_a6f54cf9-ebdd-4163-b345-a5df4d9205db_NNN_991300820.MP3
10/01/2025 18:00:59 ==>  Fin de la extracción de informacion de grabaciones para los días 4/11/2024 05:00:00 - 5/11/2024 05:00:00
10/01/2025 18:00:59 ==>  Se descargaran un total de 1 grabaciones en MP3
10/01/2025 18:00:59 ==>  STDERR: ffmpeg version git-2020-03-03-60b1f85 Copyright (c) 2000-2020 the FFmpeg developers
10/01/2025 18:00:59 ==>  STDERR:   built with gcc 9.2.1 (GCC) 20200122
10/01/2025 18:00:59 ==>  STDERR:   configuration: --enable-gpl --enable-version3 --enable-sdl2 --enable-fontconfig --enable-gnutls --enable-iconv --enable-libass --enable-libdav1d --enable-libbluray --enable-libfreetype --enable-libmp3lame --enable-libopencore-amrnb --enable-libopencore-amrwb --enable-libopenjpeg --enable-libopus --enable-libshine --enable-libsnappy --enable-libsoxr --enable-libtheora --enable-libtwolame --enable-libvpx --enable-libwavpack --enable-libwebp --enable-libx264 --enable-libx265 --enable-libxml2 --enable-libzimg --enable-lzma --enable-zlib --enable-gmp --enable-libvidstab --enable-libvorbis --enable-libvo-amrwbenc --enable-libmysofa --enable-libspeex --enable-libxvid --enable-libaom --enable-libmfx --enable-ffnvcodec --enable-cuda-llvm --enable-cuvid --enable-d3d11va --enable-nvenc --enable-nvdec --enable-dxva2 --enable-avisynth --enable-libopenmpt --enable-amf
10/01/2025 18:00:59 ==>  STDERR:   libavutil      56. 42.100 / 56. 42.100
10/01/2025 18:00:59 ==>  STDERR:   libavcodec     58. 73.102 / 58. 73.102
10/01/2025 18:00:59 ==>  STDERR:   libavformat    58. 39.101 / 58. 39.101
10/01/2025 18:00:59 ==>  STDERR:   libavdevice    58.  9.103 / 58.  9.103
10/01/2025 18:00:59 ==>  STDERR:   libavfilter     7. 77.100 /  7. 77.100
10/01/2025 18:00:59 ==>  STDERR:   libswscale      5.  6.100 /  5.  6.100
10/01/2025 18:00:59 ==>  STDERR:   libswresample   3.  6.100 /  3.  6.100
10/01/2025 18:00:59 ==>  STDERR:   libpostproc    55.  6.100 / 55.  6.100
10/01/2025 18:00:59 ==>  STDERR: Input #0, mp3, from 'C:\Users\Administrator\Documents\directory-glacier-deep-archive/KPCx1/RS/KONECTA_SOAT_RIMAC_TELEMARKETING-Semana-1-noviembre/04-11-2024_a6f54cf9-ebdd-4163-b345-a5df4d9205db_NNN_991300820.MP3':
10/01/2025 18:00:59 ==>  STDERR:   Metadata:
10/01/2025 18:00:59 ==>  STDERR:     encoder         : Lavf58.76.100
10/01/2025 18:00:59 ==>  STDERR:   Duration: 00:42:51.88, start: 0.069063, bitrate: 48 kb/s
10/01/2025 18:00:59 ==>  STDERR:     Stream #0:0: Audio: mp3, 16000 Hz, stereo, fltp, 48 kb/s
10/01/2025 18:00:59 ==>  STDERR: Stream mapping:
10/01/2025 18:00:59 ==>  STDERR:   Stream #0:0 -> #0:0 (mp3 (mp3float) -> mp3 (libmp3lame))
10/01/2025 18:00:59 ==>  STDERR: Press [q] to stop, [?] for help
10/01/2025 18:00:59 ==>  STDERR: Output #0, gsm, to 'C:\Users\Administrator\Documents\directory-glacier-deep-archive/KPCx1/RS/KONECTA_SOAT_RIMAC_TELEMARKETING-Semana-1-noviembre/04-11-2024_a6f54cf9-ebdd-4163-b345-a5df4d9205db_NNN_991300820.gsm':
10/01/2025 18:00:59 ==>  STDERR:   Metadata:
10/01/2025 18:00:59 ==>  STDERR:     encoder         : Lavf58.39.101
10/01/2025 18:00:59 ==>  STDERR:     Stream #0:0: Audio: mp3 (libmp3lame), 16000 Hz, stereo, fltp, 320 kb/s
10/01/2025 18:00:59 ==>  STDERR:     Metadata:
10/01/2025 18:00:59 ==>  STDERR:       encoder         : Lavc58.73.102 libmp3lame
10/01/2025 18:00:59 ==>  STDERR: size=     512kB time=00:01:15.35 bitrate=  55.7kbits/s speed= 150x    
10/01/2025 18:01:00 ==>  STDERR: size=    1024kB time=00:02:46.79 bitrate=  50.3kbits/s speed= 166x    
10/01/2025 18:01:00 ==>  STDERR: size=    1536kB time=00:04:31.47 bitrate=  46.3kbits/s speed= 180x    
10/01/2025 18:01:01 ==>  STDERR: size=    2048kB time=00:06:18.90 bitrate=  44.3kbits/s speed= 188x    
10/01/2025 18:01:02 ==>  STDERR: size=    2560kB time=00:08:09.27 bitrate=  42.9kbits/s speed= 194x    
10/01/2025 18:01:02 ==>  STDERR: size=    3072kB time=00:09:47.41 bitrate=  42.8kbits/s speed= 194x    
10/01/2025 18:01:03 ==>  STDERR: size=    3584kB time=00:11:11.15 bitrate=  43.7kbits/s speed= 190x    
10/01/2025 18:01:03 ==>  STDERR: size=    4096kB time=00:12:53.96 bitrate=  43.4kbits/s speed= 192x    
10/01/2025 18:01:04 ==>  STDERR: size=    4608kB time=00:14:15.25 bitrate=  44.1kbits/s speed= 188x    
10/01/2025 18:01:04 ==>  STDERR: size=    5376kB time=00:15:41.58 bitrate=  46.8kbits/s speed= 187x    
10/01/2025 18:01:05 ==>  STDERR: size=    5888kB time=00:17:05.64 bitrate=  47.0kbits/s speed= 185x    
10/01/2025 18:01:05 ==>  STDERR: size=    6400kB time=00:18:43.70 bitrate=  46.7kbits/s speed= 185x    
10/01/2025 18:01:06 ==>  STDERR: size=    6912kB time=00:20:18.24 bitrate=  46.5kbits/s speed= 186x    
10/01/2025 18:01:06 ==>  STDERR: size=    7424kB time=00:22:00.77 bitrate=  46.0kbits/s speed= 187x    
10/01/2025 18:01:07 ==>  STDERR: size=    7936kB time=00:23:15.54 bitrate=  46.6kbits/s speed= 184x    
10/01/2025 18:01:07 ==>  STDERR: size=    8704kB time=00:24:37.80 bitrate=  48.2kbits/s speed= 183x    
10/01/2025 18:01:08 ==>  STDERR: size=    9216kB time=00:26:06.79 bitrate=  48.2kbits/s speed= 183x    
10/01/2025 18:01:08 ==>  STDERR: size=    9984kB time=00:27:35.28 bitrate=  49.4kbits/s speed= 182x    
10/01/2025 18:01:09 ==>  STDERR: size=   10496kB time=00:28:59.77 bitrate=  49.4kbits/s speed= 181x    
10/01/2025 18:01:09 ==>  STDERR: size=   11264kB time=00:30:30.13 bitrate=  50.4kbits/s speed= 181x    
10/01/2025 18:01:10 ==>  STDERR: size=   11776kB time=00:32:04.41 bitrate=  50.1kbits/s speed= 182x    
10/01/2025 18:01:10 ==>  STDERR: size=   12544kB time=00:33:27.86 bitrate=  51.2kbits/s speed= 181x    
10/01/2025 18:01:11 ==>  STDERR: size=   13056kB time=00:34:57.54 bitrate=  51.0kbits/s speed= 181x    
10/01/2025 18:01:11 ==>  STDERR: size=   13568kB time=00:36:41.22 bitrate=  50.5kbits/s speed= 182x    
10/01/2025 18:01:12 ==>  STDERR: size=   14336kB time=00:38:10.79 bitrate=  51.3kbits/s speed= 181x    
10/01/2025 18:01:12 ==>  STDERR: size=   14848kB time=00:39:53.13 bitrate=  50.8kbits/s speed= 182x    
10/01/2025 18:01:13 ==>  STDERR: size=   15616kB time=00:41:25.94 bitrate=  51.5kbits/s speed= 182x    
10/01/2025 18:01:13 ==>  STDERR: size=   16284kB time=00:42:51.80 bitrate=  51.9kbits/s speed= 182x    
10/01/2025 18:01:13 ==>  STDERR: video:0kB audio:16284kB subtitle:0kB other streams:0kB global headers:0kB muxing overhead: 0.000000%
10/01/2025 18:01:13 ==>  Éxito: El archivo de salida GSM C:\Users\Administrator\Documents\directory-glacier-deep-archive/KPCx1/RS/KONECTA_SOAT_RIMAC_TELEMARKETING-Semana-1-noviembre/04-11-2024_a6f54cf9-ebdd-4163-b345-a5df4d9205db_NNN_991300820.gsm, se genero de manera correcta
10/01/2025 18:01:13 ==>  Archivo C:\Users\Administrator\Documents\directory-glacier-deep-archive/KPCx1/RS/KONECTA_SOAT_RIMAC_TELEMARKETING-Semana-1-noviembre/04-11-2024_a6f54cf9-ebdd-4163-b345-a5df4d9205db_NNN_991300820.MP3, eliminado de forma correcta
10/01/2025 18:01:26 ==>  La descarga es para el metodo mayor a 60 días
10/01/2025 18:01:26 ==>  Se inicia proceso de descarga 2024-11-04 05:00:00 - 2024-11-05 05:00:00
10/01/2025 18:01:26 ==>  Las conversaciones a evaluar son del rango:
10/01/2025 18:01:27 ==>  Se extraera un total de: 1 conversaciones
10/01/2025 18:01:27 ==>  Item: 1 - Conversacion: a23bbad7-753f-4842-bdbd-24ed691f3847
10/01/2025 18:01:27 ==>  Se extrae la información de las grabaciones de la conversación: a23bbad7-753f-4842-bdbd-24ed691f3847 y de la grabacion: a6f54cf9-ebdd-4163-b345-a5df4d9205db - con una duracion de 52
10/01/2025 18:01:27 ==>  Nombre del audio=>04-11-2024_a6f54cf9-ebdd-4163-b345-a5df4d9205db_NNN_991300820
10/01/2025 18:01:27 ==>  Descarga de audio: C:\Users\Administrator\Documents\directory-glacier-deep-archive/KPCx1/RS/KONECTA_SOAT_RIMAC_TELEMARKETING-Semana-1-noviembre/04-11-2024_a6f54cf9-ebdd-4163-b345-a5df4d9205db_NNN_991300820.MP3|https://api-downloads.mypurecloud.com/MediaCache/a23bbad7-753f-4842-bdbd-24ed691f3847/a6f54cf9-ebdd-4163-b345-a5df4d9205db/isDownloading%3Atrue_format%3AMP3_variableWidth%3Atrue_color%3A2719929_version%3Av2_expandAttachments%3Atrue/AUDIO_SGAXDAMBQOMWTSMRSGMZTOMRQGM3DQNJUG43TMLRQGAYHG%3D%3D%3D.MP3?response-content-disposition=attachment%3Bfilename%3D%22a23bbad7-753f-4842-bdbd-24ed691f3847_a6f54cf9-ebdd-4163-b345-a5.MP3%22&Expires=1736553687&Signature=IHSuP8CAF7i~5nx9H7aMlE7-RvnIvIQeYLhF58UnvU1NeY~ffoGi9ZUEx-gJ~x~-IeVw9cgQtPkSk7vVqwQgbyreKKndJMGq5uG8--sH7uCQYX-9MJz7DWxwDaZU8EhCnmNslFfMTnkZ2a1xUhA0RkiS6eOLt7aRB5oJtLFUdP0JkGQ4eyfdbHapbrV2Dd~PHuLj6OXKycdTpJHWI2cn7303--02XVGxGEPjMgNeRPwcc2FAZDuUGuaw6Vp~0BPG9KixioP125bEEUtRhlQgD1TOukebRFUKs~c9pb-IyusUi2CC5LcXW4sxz7rBCp~GZE-qE04W7CEKx9toQhWaQg__&Key-Pair-Id=K1TG4XUGWROLC3
10/01/2025 18:01:28 ==>  Archivo descargado exitosamente: C:\Users\Administrator\Documents\directory-glacier-deep-archive/KPCx1/RS/KONECTA_SOAT_RIMAC_TELEMARKETING-Semana-1-noviembre/04-11-2024_a6f54cf9-ebdd-4163-b345-a5df4d9205db_NNN_991300820.MP3
10/01/2025 18:01:28 ==>  Fin de la extracción de informacion de grabaciones para los días 4/11/2024 05:00:00 - 5/11/2024 05:00:00
10/01/2025 18:01:28 ==>  Se descargaran un total de 1 grabaciones en MP3
10/01/2025 18:01:28 ==>  STDERR: ffmpeg version git-2020-03-03-60b1f85 Copyright (c) 2000-2020 the FFmpeg developers
10/01/2025 18:01:28 ==>  STDERR:   built with gcc 9.2.1 (GCC) 20200122
10/01/2025 18:01:28 ==>  STDERR:   configuration: --enable-gpl --enable-version3 --enable-sdl2 --enable-fontconfig --enable-gnutls --enable-iconv --enable-libass --enable-libdav1d --enable-libbluray --enable-libfreetype --enable-libmp3lame --enable-libopencore-amrnb --enable-libopencore-amrwb --enable-libopenjpeg --enable-libopus --enable-libshine --enable-libsnappy --enable-libsoxr --enable-libtheora --enable-libtwolame --enable-libvpx --enable-libwavpack --enable-libwebp --enable-libx264 --enable-libx265 --enable-libxml2 --enable-libzimg --enable-lzma --enable-zlib --enable-gmp --enable-libvidstab --enable-libvorbis --enable-libvo-amrwbenc --enable-libmysofa --enable-libspeex --enable-libxvid --enable-libaom --enable-libmfx --enable-ffnvcodec --enable-cuda-llvm --enable-cuvid --enable-d3d11va --enable-nvenc --enable-nvdec --enable-dxva2 --enable-avisynth --enable-libopenmpt --enable-amf
10/01/2025 18:01:28 ==>  STDERR:   libavutil      56. 42.100 / 56. 42.100
10/01/2025 18:01:28 ==>  STDERR:   libavcodec     58. 73.102 / 58. 73.102
10/01/2025 18:01:28 ==>  STDERR:   libavformat    58. 39.101 / 58. 39.101
10/01/2025 18:01:28 ==>  STDERR:   libavdevice    58.  9.103 / 58.  9.103
10/01/2025 18:01:28 ==>  STDERR:   libavfilter     7. 77.100 /  7. 77.100
10/01/2025 18:01:28 ==>  STDERR:   libswscale      5.  6.100 /  5.  6.100
10/01/2025 18:01:28 ==>  STDERR:   libswresample   3.  6.100 /  3.  6.100
10/01/2025 18:01:28 ==>  STDERR:   libpostproc    55.  6.100 / 55.  6.100
10/01/2025 18:01:28 ==>  STDERR: Input #0, mp3, from 'C:\Users\Administrator\Documents\directory-glacier-deep-archive/KPCx1/RS/KONECTA_SOAT_RIMAC_TELEMARKETING-Semana-1-noviembre/04-11-2024_a6f54cf9-ebdd-4163-b345-a5df4d9205db_NNN_991300820.MP3':
10/01/2025 18:01:28 ==>  STDERR:   Metadata:
10/01/2025 18:01:28 ==>  STDERR:     encoder         : Lavf58.76.100
10/01/2025 18:01:28 ==>  STDERR:   Duration: 00:42:51.88, start: 0.069063, bitrate: 48 kb/s
10/01/2025 18:01:28 ==>  STDERR:     Stream #0:0: Audio: mp3, 16000 Hz, stereo, fltp, 48 kb/s
10/01/2025 18:01:28 ==>  STDERR: Stream mapping:
10/01/2025 18:01:28 ==>  STDERR:   Stream #0:0 -> #0:0 (mp3 (mp3float) -> mp3 (libmp3lame))
10/01/2025 18:01:28 ==>  STDERR: Press [q] to stop, [?] for help
10/01/2025 18:01:28 ==>  STDERR: Output #0, gsm, to 'C:\Users\Administrator\Documents\directory-glacier-deep-archive/KPCx1/RS/KONECTA_SOAT_RIMAC_TELEMARKETING-Semana-1-noviembre/04-11-2024_a6f54cf9-ebdd-4163-b345-a5df4d9205db_NNN_991300820.gsm':
10/01/2025 18:01:28 ==>  STDERR:   Metadata:
10/01/2025 18:01:28 ==>  STDERR:     encoder         : Lavf58.39.101
10/01/2025 18:01:28 ==>  STDERR:     Stream #0:0: Audio: mp3 (libmp3lame), 16000 Hz, stereo, fltp, 320 kb/s
10/01/2025 18:01:28 ==>  STDERR:     Metadata:
10/01/2025 18:01:28 ==>  STDERR:       encoder         : Lavc58.73.102 libmp3lame
10/01/2025 18:01:28 ==>  STDERR: size=     512kB time=00:01:16.17 bitrate=  55.1kbits/s speed= 150x    
10/01/2025 18:01:29 ==>  STDERR: size=    1024kB time=00:02:49.09 bitrate=  49.6kbits/s speed= 167x    
10/01/2025 18:01:29 ==>  STDERR: size=    1536kB time=00:04:25.89 bitrate=  47.3kbits/s speed= 175x    
10/01/2025 18:01:30 ==>  STDERR: size=    2048kB time=00:06:14.29 bitrate=  44.8kbits/s speed= 185x    
10/01/2025 18:01:30 ==>  STDERR: size=    2304kB time=00:07:51.02 bitrate=  40.1kbits/s speed= 186x    
10/01/2025 18:01:31 ==>  STDERR: size=    2816kB time=00:09:39.74 bitrate=  39.8kbits/s speed= 192x    
10/01/2025 18:01:31 ==>  STDERR: size=    3584kB time=00:11:13.59 bitrate=  43.6kbits/s speed= 190x    
10/01/2025 18:01:32 ==>  STDERR: size=    4096kB time=00:12:46.15 bitrate=  43.8kbits/s speed= 189x    
10/01/2025 18:01:32 ==>  STDERR: size=    4608kB time=00:14:09.49 bitrate=  44.4kbits/s speed= 186x    
10/01/2025 18:01:33 ==>  STDERR: size=    5376kB time=00:15:39.74 bitrate=  46.9kbits/s speed= 185x    
10/01/2025 18:01:33 ==>  STDERR: size=    5888kB time=00:17:11.90 bitrate=  46.7kbits/s speed= 185x    
10/01/2025 18:01:34 ==>  STDERR: size=    6400kB time=00:18:52.31 bitrate=  46.3kbits/s speed= 186x    
10/01/2025 18:01:34 ==>  STDERR: size=    6912kB time=00:20:20.79 bitrate=  46.4kbits/s speed= 185x    
10/01/2025 18:01:35 ==>  STDERR: size=    7424kB time=00:22:04.80 bitrate=  45.9kbits/s speed= 186x    
10/01/2025 18:01:35 ==>  STDERR: size=    8192kB time=00:23:30.15 bitrate=  47.6kbits/s speed= 185x    
10/01/2025 18:01:36 ==>  STDERR: size=    8704kB time=00:25:00.73 bitrate=  47.5kbits/s speed= 185x    
10/01/2025 18:01:36 ==>  STDERR: size=    9472kB time=00:26:28.10 bitrate=  48.9kbits/s speed= 184x    
10/01/2025 18:01:37 ==>  STDERR: size=    9984kB time=00:27:57.09 bitrate=  48.8kbits/s speed= 184x    
10/01/2025 18:01:37 ==>  STDERR: size=   10752kB time=00:29:27.49 bitrate=  49.8kbits/s speed= 184x    
10/01/2025 18:01:38 ==>  STDERR: size=   11264kB time=00:30:55.04 bitrate=  49.7kbits/s speed= 183x    
10/01/2025 18:01:38 ==>  STDERR: size=   11776kB time=00:32:21.73 bitrate=  49.7kbits/s speed= 182x    
10/01/2025 18:01:39 ==>  STDERR: size=   12544kB time=00:33:48.67 bitrate=  50.7kbits/s speed= 182x    
10/01/2025 18:01:39 ==>  STDERR: size=   13312kB time=00:35:07.37 bitrate=  51.7kbits/s speed= 181x    
10/01/2025 18:01:40 ==>  STDERR: size=   13824kB time=00:36:45.54 bitrate=  51.3kbits/s speed= 181x    
10/01/2025 18:01:40 ==>  STDERR: size=   14336kB time=00:38:15.83 bitrate=  51.2kbits/s speed= 181x    
10/01/2025 18:01:41 ==>  STDERR: size=   14848kB time=00:39:57.85 bitrate=  50.7kbits/s speed= 182x    
10/01/2025 18:01:41 ==>  STDERR: size=   15616kB time=00:41:23.39 bitrate=  51.5kbits/s speed= 182x    
10/01/2025 18:01:42 ==>  STDERR: size=   16284kB time=00:42:51.80 bitrate=  51.9kbits/s speed= 182x    
10/01/2025 18:01:42 ==>  STDERR: video:0kB audio:16284kB subtitle:0kB other streams:0kB global headers:0kB muxing overhead: 0.000000%
10/01/2025 18:01:42 ==>  Éxito: El archivo de salida GSM C:\Users\Administrator\Documents\directory-glacier-deep-archive/KPCx1/RS/KONECTA_SOAT_RIMAC_TELEMARKETING-Semana-1-noviembre/04-11-2024_a6f54cf9-ebdd-4163-b345-a5df4d9205db_NNN_991300820.gsm, se genero de manera correcta
10/01/2025 18:01:42 ==>  Archivo C:\Users\Administrator\Documents\directory-glacier-deep-archive/KPCx1/RS/KONECTA_SOAT_RIMAC_TELEMARKETING-Semana-1-noviembre/04-11-2024_a6f54cf9-ebdd-4163-b345-a5df4d9205db_NNN_991300820.MP3, eliminado de forma correcta
